HIERARCHY
ROOT hip
{
  OFFSET 0 0 0
  CHANNELS 6 Xposition Yposition Zposition Zrotation Yrotation Xrotation
  JOINT abdomen
  {
    OFFSET 0 20.6881 -0.73152
    CHANNELS 3 Zrotation Xrotation Yrotation
    JOINT chest
    {
      OFFSET 0 11.7043 -0.48768
      CHANNELS 3 Zrotation Xrotation Yrotation
      JOINT neck
      {
        OFFSET 0 22.1894 -2.19456
        CHANNELS 3 Zrotation Xrotation Yrotation
        JOINT head
        {
          OFFSET -0.24384 7.07133 1.2192
          CHANNELS 3 Zrotation Xrotation Yrotation
          JOINT leftEye
          {
            OFFSET 4.14528 8.04674 8.04672
            CHANNELS 3 Zrotation Xrotation Yrotation
            End Site
            {
              OFFSET 1 0 0
            }
          }
          JOINT rightEye
          {
            OFFSET -3.6576 8.04674 8.04672
            CHANNELS 3 Zrotation Xrotation Yrotation
            End Site
            {
              OFFSET 1 0 0
            }
          }
        }
      }
      JOINT rCollar
      {
        OFFSET -2.68224 19.2634 -4.8768
        CHANNELS 3 Zrotation Xrotation Yrotation
        JOINT rShldr
        {
          OFFSET -8.77824 -1.95073 1.46304
          CHANNELS 3 Zrotation Xrotation Yrotation
          JOINT rForeArm
          {
            OFFSET -28.1742 -1.7115 0.48768
            CHANNELS 3 Zrotation Xrotation Yrotation
            JOINT rHand
            {
              OFFSET -22.5879 0.773209 7.07136
              CHANNELS 3 Zrotation Xrotation Yrotation
              JOINT rThumb1
              {
                OFFSET -1.2192 -0.487915 3.41376
                CHANNELS 3 Zrotation Xrotation Yrotation
                JOINT rThumb2
                {
                  OFFSET -3.37035 -0.52449 3.41376
                  CHANNELS 3 Zrotation Xrotation Yrotation
                  End Site
                  {
                    OFFSET -1.78271 -1.18214 1.43049
                  }
                }
              }
              JOINT rIndex1
              {
                OFFSET -7.75947 0.938293 5.60832
                CHANNELS 3 Zrotation Xrotation Yrotation
                JOINT rIndex2
                {
                  OFFSET -2.54057 -0.884171 1.56538
                  CHANNELS 3 Zrotation Xrotation Yrotation
                  End Site
                  {
                    OFFSET -1.62519 -0.234802 1.16502
                  }
                }
              }
              JOINT rMid1
              {
                OFFSET -8.24714 1.18213 3.41376
                CHANNELS 3 Zrotation Xrotation Yrotation
                JOINT rMid2
                {
                  OFFSET -3.10165 -0.590103 1.0647
                  CHANNELS 3 Zrotation Xrotation Yrotation
                  End Site
                  {
                    OFFSET -2.48547 -0.328903 0.83742
                  }
                }
              }
              JOINT rRing1
              {
                OFFSET -8.82822 0.546677 1.51678
                CHANNELS 3 Zrotation Xrotation Yrotation
                JOINT rRing2
                {
                  OFFSET -2.60934 -0.819778 -0.0198488
                  CHANNELS 3 Zrotation Xrotation Yrotation
                  End Site
                  {
                    OFFSET -2.33842 -0.294052 0.168128
                  }
                }
              }
              JOINT rPinky1
              {
                OFFSET -8.27202 -0.0477905 -0.4584
                CHANNELS 3 Zrotation Xrotation Yrotation
                JOINT rPinky2
                {
                  OFFSET -1.82734 -0.647385 -0.700984
                  CHANNELS 3 Zrotation Xrotation Yrotation
                  End Site
                  {
                    OFFSET -1.69225 -0.51767 -0.607171
                  }
                }
              }
            }
          }
        }
      }
      JOINT lCollar
      {
        OFFSET 2.68224 19.2634 -4.8768
        CHANNELS 3 Zrotation Xrotation Yrotation
        JOINT lShldr
        {
          OFFSET 8.77824 -1.95073 1.46304
          CHANNELS 3 Zrotation Xrotation Yrotation
          JOINT lForeArm
          {
            OFFSET 28.1742 -1.7115 0.48768
            CHANNELS 3 Zrotation Xrotation Yrotation
            JOINT lHand
            {
              OFFSET 22.5879 0.773209 7.07136
              CHANNELS 3 Zrotation Xrotation Yrotation
              JOINT lThumb1
              {
                OFFSET 1.2192 -0.487915 3.41376
                CHANNELS 3 Zrotation Xrotation Yrotation
                JOINT lThumb2
                {
                  OFFSET 3.37035 -0.52449 3.41376
                  CHANNELS 3 Zrotation Xrotation Yrotation
                  End Site
                  {
                    OFFSET 1.78271 -1.18214 1.43049
                  }
                }
              }
              JOINT lIndex1
              {
                OFFSET 7.75947 0.938293 5.60832
                CHANNELS 3 Zrotation Xrotation Yrotation
                JOINT lIndex2
                {
                  OFFSET 2.54057 -0.884171 1.56538
                  CHANNELS 3 Zrotation Xrotation Yrotation
                  End Site
                  {
                    OFFSET 1.62519 -0.234802 1.16502
                  }
                }
              }
              JOINT lMid1
              {
                OFFSET 8.24714 1.18213 3.41376
                CHANNELS 3 Zrotation Xrotation Yrotation
                JOINT lMid2
                {
                  OFFSET 3.10165 -0.590103 1.0647
                  CHANNELS 3 Zrotation Xrotation Yrotation
                  End Site
                  {
                    OFFSET 2.48547 -0.328903 0.83742
                  }
                }
              }
              JOINT lRing1
              {
                OFFSET 8.82822 0.546677 1.51678
                CHANNELS 3 Zrotation Xrotation Yrotation
                JOINT lRing2
                {
                  OFFSET 2.60934 -0.819778 -0.0198488
                  CHANNELS 3 Zrotation Xrotation Yrotation
                  End Site
                  {
                    OFFSET 2.33842 -0.294052 0.168128
                  }
                }
              }
              JOINT lPinky1
              {
                OFFSET 8.27202 -0.0477905 -0.4584
                CHANNELS 3 Zrotation Xrotation Yrotation
                JOINT lPinky2
                {
                  OFFSET 1.82734 -0.647385 -0.700984
                  CHANNELS 3 Zrotation Xrotation Yrotation
                  End Site
                  {
                    OFFSET 1.69225 -0.51767 -0.607171
                  }
                }
              }
            }
          }
        }
      }
    }
  }
  JOINT rButtock
  {
    OFFSET -8.77824 4.35084 1.2192
    CHANNELS 3 Zrotation Xrotation Yrotation
    JOINT rThigh
    {
      OFFSET 0 -1.70687 -2.19456
      CHANNELS 3 Zrotation Xrotation Yrotation
      JOINT rShin
      {
        OFFSET 0 -36.8199 0.73152
        CHANNELS 3 Zrotation Xrotation Yrotation
        JOINT rFoot
        {
          OFFSET 0.73152 -45.1104 -5.12064
          CHANNELS 3 Zrotation Xrotation Yrotation
          End Site
          {
            OFFSET -1.1221 -3.69964 12.103
          }
        }
      }
    }
  }
  JOINT lButtock
  {
    OFFSET 8.77824 4.35084 1.2192
    CHANNELS 3 Zrotation Xrotation Yrotation
    JOINT lThigh
    {
      OFFSET 0 -1.70687 -2.19456
      CHANNELS 3 Zrotation Xrotation Yrotation
      JOINT lShin
      {
        OFFSET 0 -36.8199 0.73152
        CHANNELS 3 Zrotation Xrotation Yrotation
        JOINT lFoot
        {
          OFFSET -0.73152 -45.1104 -5.12064
          CHANNELS 3 Zrotation Xrotation Yrotation
          End Site
          {
            OFFSET 1.1221 -3.69964 12.103
          }
        }
      }
    }
  }
}
MOTION
Frames:	7
Frame Time:	0.00833333
105.135 85.1731 2.27946 0.0 0.0 0.0 0.512927 -0.00341806 0.014693 0.141685 -0.00540185 0.0245501 -4.30022e-15 -7.95139e-16 -9.93924e-17 -1.27036e-14 3.18055e-15 -2.6867e-16 -0.0 0.0 0.0 -0.0 0.0 0.0 -2.08859e-15 7.37677e-18 1.49089e-16 -4.25793e-14 -1.2424e-16 -3.97569e-16 -7.70937e-13 2.31187e-13 -2.54444e-14 -8.82106e-12 -2.23832e-13 -2.13097e-13 -2.08104e-11 1.92236e-14 -5.05708e-13 -3.59391e-11 3.49861e-14 -8.74653e-13 -2.08068e-11 2.0276e-14 -5.1525e-13 7.73091 5.47488 0.417314 -2.08098e-11 1.93815e-14 -5.08889e-13 2.90554 0.965183 0.102902 -2.08004e-11 1.92821e-14 -5.04118e-13 10.2786 0.731801 0.0259123 -2.08134e-11 1.78906e-14 -4.92986e-13 2.22167 -0.733487 -0.20892 -2.18542e-15 8.15328e-18 -2.48481e-16 -4.61018e-14 8.07563e-17 -1.98785e-15 -7.69843e-13 -2.29596e-13 0.0 -8.82578e-12 2.43909e-13 -2.19458e-13 -2.08168e-11 2.90946e-14 -5.05708e-13 -3.59403e-11 5.08889e-14 -8.68291e-13 -2.08231e-11 3.06128e-14 -4.89805e-13 -7.73091 5.47488 -0.417314 -2.08166e-11 2.94201e-14 -5.08889e-13 -2.90554 0.965183 -0.102902 -2.08182e-11 2.92213e-14 -5.04118e-13 -10.2786 0.731801 -0.0259123 -2.08122e-11 3.06128e-14 -5.12069e-13 -2.22167 -0.733487 0.20892 -2.03217e-16 0.0 -3.88251e-19 0.860107 -4.41145 -0.0729741 -0.00213194 2.43939 -0.0112595 -0.474545 1.97259 0.0938513 2.03217e-16 0.0 3.88251e-19 -0.0775936 -2.42096 0.0232523 0.0076671 -1.16602 0.0659934 0.465678 3.58744 -0.125201
97.0444 84.7414 -4.7135 176.175 -82.8258 -179.428 -0.396665 2.12246 1.11269 0.00946292 0.248679 0.316247 1.90177 3.49811 0.651049 -1.87759 -8.79999 0.669117 -0.0 0.0 0.0 -0.0 0.0 0.0 3.2992e-15 -2.34255e-13 -5.64634e-15 22.151 10.5581 1.15882 -4.20777 -1.90948 6.57475 0.0310225 -3.91006 -0.544916 -2.01726e-10 -5.27301e-11 8.98059e-12 -3.49346e-10 -9.10756e-11 1.38711e-11 -2.01721e-10 -5.27292e-11 8.96867e-12 7.73091 5.47488 0.417314 -2.01724e-10 -5.27316e-11 8.97741e-12 2.90554 0.965183 0.102902 -2.01716e-10 -5.27316e-11 8.98033e-12 10.2786 0.731801 0.0259123 -2.01729e-10 -5.27325e-11 8.98969e-12 2.22167 -0.733487 -0.20892 3.2182e-15 -2.34253e-13 -6.04857e-15 -20.9033 9.48584 -0.579756 4.29158 -1.9644 -6.68732 -0.000993502 0.706356 -0.0992454 6.99814e-11 -6.84336e-11 -1.43372e-10 1.21076e-10 -1.18667e-10 -2.48666e-10 6.99759e-11 -6.84328e-11 -1.43359e-10 -7.73091 5.47488 -0.417314 6.99806e-11 -6.8434e-11 -1.43374e-10 -2.90554 0.965183 -0.102902 6.99805e-11 -6.84346e-11 -1.43372e-10 -10.2786 0.731801 -0.0259123 6.9986e-11 -6.84329e-11 -1.43379e-10 -2.22167 -0.733487 0.20892 -2.03217e-16 0.0 -3.88251e-19 1.10566 -4.77203 4.9405 0.0351786 7.40849 0.151462 -1.78461 -4.22454 -9.3206 2.03217e-16 0.0 3.88251e-19 -0.49688 -2.47441 -5.03428 -0.0330128 4.34523 -0.12294 1.58359 -2.86454 8.54754
97.0396 84.7445 -4.72433 176.358 -82.7787 -179.64 -1.45437 4.3666 2.27992 -0.131294 0.519312 0.624788 3.81494 7.21009 1.34878 -3.61392 -18.1224 1.43884 -0.0 0.0 0.0 -0.0 0.0 0.0 9.40819e-15 -5.01316e-13 -1.22656e-14 45.0705 21.699 2.52275 -8.18232 -3.84387 13.5477 -0.0177408 -8.03005 -1.12775 -4.02477e-10 -1.17823e-10 1.23875e-11 -6.97082e-10 -2.03552e-10 1.79512e-11 -4.0247e-10 -1.17822e-10 1.23732e-11 7.73091 5.47488 0.417314 -4.02474e-10 -1.17826e-10 1.23843e-11 2.90554 0.965183 0.102902 -4.02467e-10 -1.17826e-10 1.23852e-11 10.2786 0.731801 0.0259123 -4.0248e-10 -1.17827e-10 1.23926e-11 2.22167 -0.733487 -0.20892 9.3465e-15 -5.01313e-13 -1.26756e-14 -42.7839 19.5136 -1.24696 8.33264 -3.95128 -13.7806 0.000640793 1.46465 -0.205841 1.58093e-10 -1.43621e-10 -2.94766e-10 2.73478e-10 -2.49048e-10 -5.11271e-10 1.58088e-10 -1.43621e-10 -2.94756e-10 -7.73091 5.47488 -0.417314 1.58091e-10 -1.43622e-10 -2.94768e-10 -2.90554 0.965183 -0.102902 1.58092e-10 -1.43623e-10 -2.94768e-10 -10.2786 0.731801 -0.0259123 1.58098e-10 -1.43621e-10 -2.94775e-10 -2.22167 -0.733487 0.20892 -2.03217e-16 0.0 -3.88251e-19 1.42677 -5.10892 10.2431 0.0429376 12.6664 0.328102 -5.35565 -10.2168 -19.5553 2.03217e-16 0.0 3.88251e-19 -0.956841 -2.50569 -10.3819 -0.0359892 10.1661 -0.326871 4.87744 -9.27962 17.9415
97.0234 84.7544 -4.72244 176.258 -82.7898 -179.618 -2.46143 6.36477 3.32694 -0.262743 0.756759 0.899709 5.46343 10.4889 1.98265 -4.95536 -26.3847 2.2145 -0.0 0.0 0.0 -0.0 0.0 0.0 1.40748e-14 -7.0278e-13 -1.72372e-14 64.9831 31.6177 4.01423 -11.3325 -5.42733 19.8057 -0.134069 -11.7259 -1.66571 -5.63557e-10 -1.58229e-10 2.79532e-11 -9.7616e-10 -2.73297e-10 4.33626e-11 -5.63548e-10 -1.58228e-10 2.79365e-11 7.73091 5.47488 0.417314 -5.63554e-10 -1.58234e-10 2.795e-11 2.90554 0.965183 0.102902 -5.63548e-10 -1.58234e-10 2.79492e-11 10.2786 0.731801 0.0259123 -5.6356e-10 -1.58233e-10 2.7955e-11 2.22167 -0.733487 -0.20892 1.40254e-14 -7.02776e-13 -1.76487e-14 -62.0669 28.445 -1.95111 11.5248 -5.57276 -20.1494 0.00436485 2.11904 -0.297917 2.51578e-10 -2.05359e-10 -4.29104e-10 4.35109e-10 -3.56103e-10 -7.44261e-10 2.51574e-10 -2.0536e-10 -4.29096e-10 -7.73091 5.47488 -0.417314 2.51575e-10 -2.05361e-10 -4.29105e-10 -2.90554 0.965183 -0.102902 2.51578e-10 -2.05362e-10 -4.29107e-10 -10.2786 0.731801 -0.0259123 2.51582e-10 -2.0536e-10 -4.29113e-10 -2.22167 -0.733487 0.20892 -2.03217e-16 0.0 -3.88251e-19 1.78123 -5.35889 14.9825 0.0215746 17.3462 0.495633 -10.4134 -14.7645 -29.1213 2.03217e-16 0.0 3.88251e-19 -1.36168 -2.51942 -15.1502 -0.00228952 15.3672 -0.518249 9.61033 -14.2406 26.7441
97.0274 84.7603 -4.73989 176.959 -82.8022 -180.372 -3.16774 7.75704 4.05606 -0.365335 0.91132 1.09051 6.62482 12.6899 2.42804 -5.82413 -32.0121 2.80143 -0.0 0.0 0.0 -0.0 0.0 0.0 1.51353e-14 -7.40251e-13 -1.80894e-14 78.4669 38.5337 5.32603 -13.3217 -6.41994 24.199 -0.259981 -14.3653 -2.06276 -6.25461e-10 -1.36917e-10 7.39161e-11 -1.08359e-09 -2.36213e-10 1.22102e-10 -6.2545e-10 -1.36916e-10 7.3897e-11 7.73091 5.47488 0.417314 -6.25457e-10 -1.36922e-10 7.39129e-11 2.90554 0.965183 0.102902 -6.25451e-10 -1.36922e-10 7.39113e-11 10.2786 0.731801 0.0259123 -6.25464e-10 -1.36922e-10 7.39161e-11 2.22167 -0.733487 -0.20892 1.50809e-14 -7.40247e-13 -1.8487e-14 -75.3284 34.6475 -2.54963 13.5353 -6.58551 -24.6238 0.00775569 2.51368 -0.353504 3.58496e-10 -2.33475e-10 -5.208e-10 6.19815e-10 -4.0484e-10 -9.03215e-10 3.58493e-10 -2.33476e-10 -5.20794e-10 -7.73091 5.47488 -0.417314 3.58493e-10 -2.33477e-10 -5.208e-10 -2.90554 0.965183 -0.102902 3.58496e-10 -2.33479e-10 -5.20803e-10 -10.2786 0.731801 -0.0259123 3.58501e-10 -2.33476e-10 -5.20809e-10 -2.22167 -0.733487 0.20892 -2.03217e-16 0.0 -3.88251e-19 2.09165 -5.49462 18.3036 -0.00964719 20.5813 0.623499 -15.064 -17.4748 -36.0709 2.03217e-16 0.0 3.88251e-19 -1.6147 -2.5336 -18.4695 0.0433135 19.0194 -0.660848 13.8663 -17.088 33.157
97.0481 84.7599 -4.76736 177.969 -82.7837 -181.384 -3.36776 8.31382 4.32786 -0.42915 0.946509 1.16363 7.21673 13.3349 2.5847 -6.37946 -33.8909 2.92491 -0.0 0.0 0.0 -0.0 0.0 0.0 9.8471e-15 -3.51809e-13 -5.07949e-15 83.6293 41.3062 5.9333 -14.0627 -6.78346 25.9392 -0.326329 -15.557 -2.24594 -5.50265e-10 4.13073e-12 2.21843e-10 -9.54044e-10 8.25175e-12 3.7802e-10 -5.50252e-10 4.13058e-12 2.21821e-10 7.73091 5.47488 0.417314 -5.5026e-10 4.12424e-12 2.2184e-10 2.90554 0.965183 0.102902 -5.50255e-10 4.12421e-12 2.21839e-10 10.2786 0.731801 0.0259123 -5.50269e-10 4.1256e-12 2.21843e-10 2.22167 -0.733487 -0.20892 9.75478e-15 -3.51804e-13 -5.43785e-15 -80.4296 37.0415 -2.83268 14.2846 -6.95642 -26.3999 0.00816686 2.52004 -0.354409 5.17988e-10 -2.04176e-10 -5.81414e-10 8.95009e-10 -3.53993e-10 -1.00799e-09 5.17986e-10 -2.04176e-10 -5.81408e-10 -7.73091 5.47488 -0.417314 5.17986e-10 -2.04178e-10 -5.81413e-10 -2.90554 0.965183 -0.102902 5.17988e-10 -2.04178e-10 -5.81417e-10 -10.2786 0.731801 -0.0259123 5.17993e-10 -2.04176e-10 -5.81424e-10 -2.22167 -0.733487 0.20892 -2.03217e-16 0.0 -3.88251e-19 2.29401 -5.52006 19.6377 -0.0239315 21.7907 0.685408 -17.5299 -18.974 -38.8631 2.03217e-16 0.0 3.88251e-19 -1.647 -2.56843 -19.7636 0.0671519 20.5095 -0.721815 15.7549 -18.1049 35.6827
97.0746 84.7571 -4.79409 178.823 -82.7352 -182.217 -3.18838 8.27533 4.26949 -0.464566 0.896608 1.15267 7.41744 12.872 2.5301 -6.7726 -33.0981 2.67315 -0.0 0.0 0.0 -0.0 0.0 0.0 8.59832e-17 3.31509e-13 1.74465e-14 83.0639 41.1347 5.86903 -13.9948 -6.75419 25.7728 -0.330922 -15.714 -2.26947 -3.77057e-10 2.29116e-10 4.39772e-10 -6.55063e-10 3.98093e-10 7.55612e-10 -3.77043e-10 2.29115e-10 4.39746e-10 7.73091 5.47488 0.417314 -3.77052e-10 2.29109e-10 4.39769e-10 2.90554 0.965183 0.102902 -3.77047e-10 2.29109e-10 4.39769e-10 10.2786 0.731801 0.0259123 -3.77064e-10 2.29111e-10 4.39775e-10 2.22167 -0.733487 -0.20892 -6.73781e-17 3.31514e-13 1.71452e-14 -79.7855 36.7185 -2.82985 14.2191 -6.9291 -26.2363 0.00635495 2.25024 -0.316416 7.13425e-10 -1.34359e-10 -6.18464e-10 1.23207e-09 -2.32869e-10 -1.07171e-09 7.13423e-10 -1.34358e-10 -6.18459e-10 -7.73091 5.47488 -0.417314 7.13424e-10 -1.34359e-10 -6.18462e-10 -2.90554 0.965183 -0.102902 7.13424e-10 -1.34359e-10 -6.18467e-10 -10.2786 0.731801 -0.0259123 7.13429e-10 -1.34358e-10 -6.18474e-10 -2.22167 -0.733487 0.20892 -2.03217e-16 0.0 -3.88251e-19 2.40861 -5.48029 19.5515 -0.0181456 21.5535 0.696448 -18.0395 -20.0068 -38.5729 2.03217e-16 0.0 3.88251e-19 -1.51954 -2.6235 -19.6109 0.0655807 20.4551 -0.720051 15.5863 -18.1411 35.3086
